<?xml version="1.0" encoding="utf-8"?>
<svg version="1.1" id="Layer_1" xmlns="http://www.w3.org/2000/svg" xmlns:xlink="http://www.w3.org/1999/xlink" x="0px" y="0px"
	 viewBox="0 0 695.2 185.6" style="enable-background:new 0 0 695.2 185.6;" xml:space="preserve">
<style type="text/css">
	.st0{fill:none;stroke:#000000;stroke-width:5;stroke-miterlimit:10;}
	.st1{fill:#414142;}
	.st2{fill:#232020;}
	.st3{enable-background:new    ;}
</style>
<path class="st0" d="M284.7,2.5H14.8C8,2.5,2.5,8,2.5,14.8v104.9c0,6.8,5.5,12.3,12.3,12.3h56.5l18.8,42v-42h0.2l0,0h194.4
	c6.8,0,12.3-5.5,12.3-12.3V14.8C296.9,8,291.4,2.5,284.7,2.5z"/>
<path class="st1" d="M398.7,109.1V61.8c0-5.6-0.3-8.7-6.2-8.7c-2.7,0-6.4,1.1-9.4,2.7c0.3,2,0.3,4,0.3,6.1v47.3H356V61.8
	c0-5.7-0.1-8.7-5.7-8.7c-3.3,0-7,1.5-9.6,2.8v53.2h-27.3V36h25.4v5.8c6.2-5.1,14.3-7.7,22.2-7.7c9.4,0,14.7,2.9,18.1,8
	c8-5.7,16.3-8,23.1-8c19.8,0,23.9,11.7,23.9,27v47.9H398.7z"/>
<path class="st1" d="M479.4,65.2c0-7.7-1.6-13.1-10.4-13.1c-8.6,0-10.2,5.6-10.2,13.1v1h20.6V65.2z M458.8,79.1v1
	c0,8.3,1,11.9,14.6,11.9c7.2,0,13.5-0.3,28.4-0.9v16.5c-6.1,1.4-16.9,3.3-29.7,3.3c-27.4,0-40.4-8.5-40.4-36.5v-3.3
	c0-26.5,13.1-37,37.3-37c30.5,0,36.6,19.2,36.6,38.8v6.2H458.8z"/>
<path class="st1" d="M556.2,54.2c-2.8-0.5-6.2-0.8-8.4-0.8c-7.8,0-11.1,2.4-11.1,15.4v7.6c0,11.5,2.4,15,10.2,15
	c3.2,0,6.7-0.8,9.3-1.8V54.2z M558.4,109.1v-3.8c-5.3,3.3-12.1,5.7-21,5.7c-17.7,0-27.9-11-27.9-34.5v-7.6
	c0-25.3,12.4-34.7,34.8-34.7c4.9,0,8.5,0.3,11.8,0.8V10.2h27.4v98.8H558.4z"/>
<path class="st1" d="M593.1,109.1V36h27.4v73H593.1z M592.6,27.3V10.2H621v17.1H592.6z"/>
<path class="st1" d="M669.1,78h-5.8c-7.7,0-11.2,0.9-11.2,8v2.7c0,4.9,2.7,6.3,6.6,6.3c4.3,0,8.5-1.7,10.5-2.7V78z M670.4,109.1
	v-4.7c-4.9,3.3-13.6,6.6-23,6.6c-13.8,0-21.2-7.3-21.2-20.9v-3c0-19.7,15.8-21.5,36.8-21.5h4.8v-3.7c0-7.5-1.6-9-11.6-9
	c-2.2,0-4,0.1-6.2,0.1l-1.3,5.1h-16.8V38.9c5.1-1.6,17.6-4.8,30.6-4.8c22.1,0,32.7,6.8,32.7,27.8v47.1H670.4z"/>
<g>
	<path class="st2" d="M129.6,162.2c0-7.1-3.3-9.4-7.8-9.4c-4.6,0-7.9,2.3-7.9,9.4v2.6c0,7.1,3.3,9.4,7.9,9.4c4.6,0,7.8-2.3,7.8-9.4
		V162.2z M121.8,176.2c-6.6,0-10.4-3.6-10.4-11.4v-2.6c0-7.8,3.8-11.4,10.4-11.4c6.5,0,10.3,3.6,10.3,11.4v2.6
		C132.1,172.6,128.3,176.2,121.8,176.2z"/>
	<path class="st2" d="M150.3,166c0-5-1.5-6.7-5-6.7c-1.9,0-3.7,0.6-5.8,1.5V174c2,0.3,3.5,0.4,4.8,0.4c3.9,0,6.1-1.5,6.1-7.1V166z
		 M144.2,176.2c-1.2,0-3-0.2-4.8-0.4v6.9h-2.4v-24.9h2.3v1.3c1.7-1,4-1.8,6.2-1.8c4.8,0,7.1,2.4,7.1,8.7v1.3
		C152.7,174.1,149.4,176.2,144.2,176.2z"/>
	<path class="st2" d="M163.8,176.2c-3.4,0-4.5-1.2-4.5-4.5v-12.1l-4.3-0.2v-1.7h4.3V153h2.4v4.8h5.7v1.8h-5.7v12
		c0,2.3,0.3,2.8,2.4,2.8c1,0,2.5-0.1,3.4-0.2v1.5C166.5,176,165,176.2,163.8,176.2z"/>
	<path class="st2" d="M171.5,154.3v-4.1h2.5v4.1H171.5z M171.5,175.8v-18h2.4v18H171.5z"/>
	<path class="st2" d="M202.6,175.8v-12c0-2.9-0.3-4.5-3.5-4.5c-1.5,0-3.6,0.6-5.6,1.7c0.2,0.8,0.3,1.7,0.3,2.9v12h-2.4v-12
		c0-2.9-0.2-4.5-3.3-4.5c-1.7,0-3.8,0.8-5.6,1.7v14.9H180v-18h2.4v1.4c1.9-1.2,4-1.9,6.1-1.9c2.4,0,3.7,0.8,4.5,2
		c2.4-1.4,4.6-2,6.4-2c5.4,0,5.6,3.4,5.6,6.4v12H202.6z"/>
	<path class="st2" d="M211,154.3v-4.1h2.5v4.1H211z M211,175.8v-18h2.4v18H211z"/>
	<polygon class="st2" points="218.1,175.8 218.1,173.4 229.9,159.6 218.6,159.6 218.6,157.8 232.5,157.8 232.5,160 220.6,174 
		232.5,174 232.5,175.8 	"/>
	<path class="st2" d="M248.7,166.8h-3.4c-4.8,0-6.7,0.6-6.7,3.8v0.6c0,2.5,1.5,3.3,4.1,3.3c2.5,0,5-1,6.1-1.6V166.8z M248.8,175.8
		v-1.3c-1.4,0.8-3.7,1.7-6.7,1.7c-3.9,0-6-1.6-6-5.2v-0.5c0-4.6,3.3-5.5,9.1-5.5h3.4v-1.5c0-3.5-0.9-4.3-5.3-4.3
		c-2,0-3.6,0.1-5.9,0.4V158c1.9-0.3,3.5-0.6,6-0.6c6.4,0,7.5,2,7.5,6.2v12.3H248.8z"/>
	<path class="st2" d="M263.8,176.2c-5.5,0-8-2.6-8-8.4v-2c0-5.8,2.6-8.5,8-8.5c2.4,0,4.3,0.3,5.5,0.6v1.7c-2.4-0.2-4.1-0.3-5.2-0.3
		c-3.8,0-5.9,1.3-5.9,6.6v2c0,5.4,2.1,6.6,5.9,6.6c1,0,2.7-0.1,5.2-0.4v1.7C268,175.9,266.1,176.2,263.8,176.2z"/>
	<path class="st2" d="M274.1,154.3v-4.1h2.4v4.1H274.1z M274.1,175.8v-18h2.4v18H274.1z"/>
	<path class="st2" d="M290.4,155.4h-2.5l5-5.1h2.9L290.4,155.4z M290,176.2c-5.7,0-8.3-2.9-8.3-8.5v-1.9c0-5.5,2.7-8.5,8.3-8.5
		c5.7,0,8.3,3,8.3,8.5v1.9C298.4,173.3,295.7,176.2,290,176.2z M296,165.8c0-4.6-1.8-6.6-5.9-6.6c-4.1,0-5.9,1.9-5.9,6.6v1.9
		c0,4.6,1.8,6.6,5.9,6.6c4.2,0,5.9-2,5.9-6.6V165.8z"/>
	<path class="st2" d="M316.6,175.8v-11.4c0-3.8-0.9-5.2-4.1-5.2c-1.9,0-4.2,0.7-6.7,1.7v14.9h-2.4v-18h2.4v1.5
		c2.2-1.1,4.5-1.9,6.9-1.9c5.2,0,6.3,2.5,6.3,7.1v11.4H316.6z"/>
	<path class="st2" d="M354.7,175.8h-3.9l-4.5-16.3c-0.2-0.9-0.5-1.8-0.7-2.7h-0.1c-0.3,0.9-0.5,1.8-0.7,2.7l-4.5,16.3h-4l-5.4-24.6
		h2.6l4,19c0.3,1.3,0.5,2.6,0.8,3.9h0.1c0.3-1.3,0.7-2.6,1-3.9l4.2-15.3h3.9l4.2,15.3c0.3,1.3,0.7,2.5,1,3.8h0.1
		c0.2-1.4,0.5-2.5,0.7-3.9l4-19h2.5L354.7,175.8z"/>
	<path class="st2" d="M376.3,165.4c0-3.2-1-6.2-5.8-6.2c-4.9,0-5.8,3.1-5.8,6.2l0,0.3h11.7V165.4z M364.6,167.6v0.4
		c0,4.1,1.2,6.4,6.7,6.4c2.2,0,5-0.2,6.9-0.5v1.7c-1.4,0.3-3.9,0.7-6.9,0.7c-6.8,0-9-2.7-9-8.7v-1.3c0-5.6,2.5-8.9,8.3-8.9
		c5.8,0,8.3,3.2,8.3,9.1v1.1H364.6z"/>
	<path class="st2" d="M396.9,165.4c0-4.7-1.6-6.2-5.6-6.2c-1.2,0-3.6,0.2-5.2,0.9v14c1.4,0.1,3,0.2,4.5,0.2c4.3,0,6.3-1.5,6.3-6.6
		V165.4z M390.6,176.2c-2,0-3.6-0.1-6.9-0.4v-25.7h2.4v8.2c1.9-0.8,3.9-1.1,5.5-1.1c5.3,0,7.7,2.4,7.7,8.1v2.3
		C399.3,173.9,396.5,176.2,390.6,176.2z"/>
	<path class="st2" d="M432.3,175.8v-17.9c0-1.5,0.1-2.5,0.2-3.8h-0.1c-0.6,1.2-1.2,2.2-1.8,3.3l-5.7,9.7h-3.1l-5.6-9.7
		c-0.6-1.1-1.2-2.2-1.8-3.3h-0.1c0.1,1.4,0.1,2.4,0.1,3.8v17.9h-2.4v-24.6h3.2l6.5,11.3c0.6,1,1.1,2,1.6,3h0.1c0.5-1,1.1-2,1.6-3
		l6.6-11.3h3.2v24.6H432.3z"/>
	<path class="st2" d="M452.3,166.8h-3.4c-4.8,0-6.7,0.6-6.7,3.8v0.6c0,2.5,1.6,3.3,4.1,3.3c2.5,0,5-1,6.1-1.6V166.8z M452.4,175.8
		v-1.3c-1.4,0.8-3.7,1.7-6.7,1.7c-3.9,0-6-1.6-6-5.2v-0.5c0-4.6,3.3-5.5,9.1-5.5h3.4v-1.5c0-3.5-0.8-4.3-5.3-4.3
		c-1.9,0-3.6,0.1-5.9,0.4V158c1.9-0.3,3.5-0.6,6-0.6c6.4,0,7.5,2,7.5,6.2v12.3H452.4z"/>
	<path class="st2" d="M462.8,161v14.9h-2.4v-18h2.4v1.5c2.4-1.5,5.2-1.9,7.5-1.9v2C468.1,159.3,465,159.8,462.8,161z"/>
	<polygon class="st2" points="485,175.8 476.1,166.7 476.1,175.8 473.7,175.8 473.7,150.2 476.1,150.2 476.1,166 484.9,157.8 
		488.1,157.8 478.8,166.3 488.2,175.8 	"/>
	<path class="st2" d="M504.1,165.4c0-3.2-1-6.2-5.8-6.2c-4.9,0-5.9,3.1-5.9,6.2l0,0.3h11.7V165.4z M492.4,167.6v0.4
		c0,4.1,1.2,6.4,6.7,6.4c2.2,0,5-0.2,6.8-0.5v1.7c-1.4,0.3-3.9,0.7-6.9,0.7c-6.8,0-9-2.7-9-8.7v-1.3c0-5.6,2.5-8.9,8.3-8.9
		c5.8,0,8.3,3.2,8.3,9.1v1.1H492.4z"/>
	<path class="st2" d="M517.6,176.2c-3.4,0-4.5-1.2-4.5-4.5v-12.1l-4.3-0.2v-1.7h4.3V153h2.4v4.8h5.7v1.8h-5.7v12
		c0,2.3,0.3,2.8,2.4,2.8c1,0,2.5-0.1,3.3-0.2v1.5C520.4,176,518.8,176.2,517.6,176.2z"/>
	<path class="st2" d="M525.3,154.3v-4.1h2.5v4.1H525.3z M525.3,175.8v-18h2.4v18H525.3z"/>
	<path class="st2" d="M547,175.8v-11.4c0-3.8-0.9-5.2-4.1-5.2c-1.9,0-4.2,0.7-6.7,1.7v14.9h-2.4v-18h2.4v1.5
		c2.2-1.1,4.5-1.9,6.9-1.9c5.1,0,6.3,2.5,6.3,7.1v11.4H547z"/>
	<path class="st2" d="M567.6,159.5c-0.9-0.1-2.8-0.3-4.3-0.3c-4.8,0-6.5,1.9-6.5,6.4v2.3c0,4.8,1.7,6.4,6.1,6.4
		c1.8,0,3.9-0.4,4.8-0.6V159.5z M562.2,183.1c-2.8,0-5.9-0.4-7-0.6v-1.6c2.2,0.2,4.6,0.3,7,0.3c4.4,0,5.3-1.3,5.3-4.7v-0.9
		c-0.9,0.2-2.9,0.7-4.8,0.7c-5.6,0-8.4-2.2-8.4-8.3v-2.3c0-5.7,2.6-8.3,8.9-8.3c1.9,0,4.5,0.2,6.7,0.5v18.7
		C570,180.8,568.4,183.1,562.2,183.1z"/>
</g>
<g>
	<g>
		<g class="st3">
			<g>
				<polygon points="230.6,98.6 230.6,98.6 231.4,98.7 231.4,98.7 				"/>
			</g>
			<g>
				<polygon points="230.3,98.3 230.3,98.3 231.4,98.5 231.4,98.5 				"/>
			</g>
			<g>
				<polygon points="248.9,72.6 248.9,72.6 253.7,74.6 253.7,74.6 				"/>
			</g>
			<g>
				<polygon points="252.1,66 252.1,66 256.9,68 256.9,68 				"/>
			</g>
			<g>
				<polygon points="252.2,65.8 252.2,65.8 257,67.8 257,67.8 				"/>
			</g>
			<g>
				<rect x="268.4" y="50.8" width="6.3" height="0"/>
			</g>
			<g>
				<polygon points="267.5,43.4 267.5,43.4 268.4,50.8 268.4,50.8 				"/>
			</g>
			<g>
				<path d="M254.1,35.7c8.4,0,17.4,1.4,20.7,2.4v12.8h-6.3l-0.9-7.5c-3.8-0.4-9.5-0.8-13.1-0.8c-10.6,0-16.7,1.6-16.7,9.6
					c0,6.5,3.6,9.1,14.4,13.8l4.8,2c15,6.5,20.4,10.6,20.4,21.1c0,5.3-1.8,9.6-5.2,12.7c-4.2,3.7-10.8,5.6-19.6,5.6
					c-9.3,0-18.7-1.7-22-2.5v-6.3l0.8,0.1c5.1,0.8,12.8,1.9,20.9,1.9c11.5,0,16.9-3.6,16.9-11.4c0-7.2-3.1-9.5-15.5-14.7l-4.8-2
					c-14-5.9-19.3-11.4-19.3-20.3C229.7,41.1,237.6,35.7,254.1,35.7z"/>
			</g>
			<g>
				<path d="M257,67.8c15.2,6.5,20.6,10.7,20.6,21.3c0,5.4-1.8,9.7-5.3,12.9c-4.2,3.8-10.9,5.7-19.7,5.7c-9.4,0-19-1.7-22.1-2.5
					l-0.1-6.8l1.1,0.2c5.1,0.7,12.8,1.9,20.9,1.9c14.9,0,16.7-6.3,16.7-11.1c0-7.1-3.1-9.3-15.3-14.4l-4.8-2
					c-7.1-3-11.6-5.6-14.6-8.6c-3.3-3.3-4.8-7.1-4.8-11.9c0-11.3,8.1-16.8,24.6-16.8c8.5,0,17.6,1.4,20.9,2.4l0.1,13.3h-6.8
					l-0.9-7.5c-3.7-0.4-9.3-0.7-12.9-0.7c-12.1,0-16.4,2.4-16.4,9.4c0,6.4,3.5,9,14.2,13.5L257,67.8z M272.1,101.8
					c3.4-3.1,5.2-7.4,5.2-12.7c0-10.5-5.3-14.6-20.4-21.1l-4.8-2c-10.8-4.6-14.4-7.3-14.4-13.8c0-8,6.1-9.6,16.7-9.6
					c3.6,0,9.3,0.4,13,0.8l1,7.5h6.3V38c-3.4-1-12.3-2.4-20.7-2.4c-16.4,0-24.4,5.4-24.4,16.6c0,9,5.2,14.5,19.3,20.3l4.8,2
					c12.4,5.2,15.5,7.4,15.5,14.7c0,7.8-5.4,11.4-16.9,11.4c-8.1,0-15.8-1.1-20.9-1.9l-0.8-0.1v6.3c3.2,0.8,12.7,2.5,22,2.5
					C261.4,107.4,267.9,105.5,272.1,101.8"/>
			</g>
		</g>
	</g>
</g>
<g>
	<g>
		<g class="st3">
			<g>
				<rect x="40.7" y="105.8" width="8" height="0"/>
			</g>
			<g>
				<rect x="118.1" y="105.8" width="8.1" height="0"/>
			</g>
			<g>
				<rect x="79.3" y="105.8" width="8.1" height="0"/>
			</g>
			<g>
				<polygon points="33.6,44.1 33.6,44.1 40.7,44.5 40.7,44.5 				"/>
			</g>
			<g>
				<rect x="33.6" y="37.4" width="15" height="0"/>
			</g>
			<g>
				<rect x="33.3" y="37.2" width="15.5" height="0"/>
			</g>
			<g>
				<path d="M107,35.7c8.2,0,13.6,2.6,16.5,7.9c2.5,4.7,2.7,10.7,2.7,16.5v45.7h-8.1V60.1c0-10.8-0.8-17.4-12.1-17.4
					c-5.5,0-12.6,2.4-19.4,6.5c0.6,3.3,0.8,6.5,0.8,11v45.7h-8.1V60.1c0-5.3-0.1-9.9-1.7-12.9C76,44,73,42.6,67.8,42.6
					c-7,0-15,4-19.1,6.5l-0.1,56.7h-8V44.5l-7.1-0.4v-6.7h15V43c7.1-4.8,14.2-7.3,21-7.3c7.6,0,12.4,2.4,15.2,7.6
					C94.4,37,102.1,35.7,107,35.7z"/>
			</g>
			<g>
				<path d="M123.7,43.4c2.5,4.7,2.8,10.8,2.8,16.6v46h-8.6v-46c0-10.7-0.8-17.2-11.9-17.2c-5.4,0-12.4,2.3-19.2,6.4
					c0.6,3.1,0.9,6.4,0.9,10.8v46h-8.6v-46c0-11-0.5-17.2-11.2-17.2c-5.1,0-11.9,2.3-19,6.4v56.8h-8.5V44.8l-7.1-0.4v-7.2h15.5v5.3
					c6.8-4.6,14-7.1,20.7-7.1c7.6,0,12.6,2.5,15.3,7.7c9.5-6.3,17.2-7.7,22.1-7.7C115.3,35.4,120.8,38,123.7,43.4z M126.2,105.8
					V60.1c0-5.8-0.2-11.8-2.7-16.5c-2.9-5.3-8.2-7.9-16.5-7.9c-4.8,0-12.6,1.3-22,7.7c-2.9-5.3-7.7-7.7-15.4-7.7
					c-6.7,0-13.9,2.5-20.8,7.2l-0.2-5.4h-15v6.7l7.1,0.4v61.3h8V49.1c4.2-2.4,12.2-6.5,19.2-6.5c5.2,0,8.2,1.4,9.8,4.6
					c1.5,3,1.7,7.6,1.7,12.9v45.7h8.1V60.1c0-4.5-0.3-7.7-0.9-10.8c6.9-4.2,13.9-6.6,19.4-6.6c11.3,0,12.1,6.6,12.1,17.4v45.7H126.2
					"/>
			</g>
		</g>
	</g>
</g>
<path d="M182.3,71.4h-11.6c-16.5,0-23.1,2.3-23.1,14.5v2.4c0,9.5,5.3,12.8,13.9,12.8c8.6,0,17.1-3.8,20.9-6.2V71.4z M182.7,105.9
	V101c-4.8,2.9-12.6,6.6-22.9,6.6c-13.4,0-20.5-6.1-20.5-19.7V86c0-17.4,11.2-21,31.3-21h11.6v-5.8c0-13.4-2.9-16.6-18.2-16.6
	c-3.6,0-7.5,0.1-12.9,0.5l-0.8,7.7H144V37.9c4.7-0.9,12.4-2.4,20.7-2.4c21.9,0,25.9,7.5,25.9,23.6v46.8H182.7z"/>
<g>
	<g>
		<g class="st3">
			<g>
				<rect x="182.8" y="105.8" width="7.7" height="0"/>
			</g>
			<g>
				<polygon points="161.4,101 161.4,101 182.2,94.9 182.2,94.9 				"/>
			</g>
			<g>
				<path d="M152.8,74c3.4-1.9,8.5-2.7,17.8-2.7h11.8V95c-3.7,2.3-12.2,6.2-21,6.2c-9.6,0-14-4.1-14-12.9V86
					C147.4,79.8,149.1,76.1,152.8,74z M182.2,94.9V71.6h-11.5c-9.3,0-14.4,0.8-17.7,2.7c-3.7,2.1-5.3,5.7-5.3,11.8v2.4
					c0,8.6,4.4,12.6,13.8,12.6L182.2,94.9"/>
			</g>
			<g>
				<rect x="170.7" y="71.3" width="11.8" height="0"/>
			</g>
			<g>
				<rect x="170.7" y="64.9" width="11.5" height="0"/>
			</g>
			<g>
				<rect x="144.1" y="50.7" width="6.2" height="0"/>
			</g>
			<g>
				<polygon points="150.3,50.7 150.3,50.7 151.1,43 151.1,43 				"/>
			</g>
			<g>
				<path d="M164.7,35.4c22.1,0,26,7.7,26,23.8v46.9h-8.2v-4.8c-7.2,4.3-14.8,6.5-22.7,6.5c-13.9,0-20.6-6.5-20.6-19.8V86
					c0-17.6,11.5-21.1,31.5-21.1h11.5v-5.7c0-7.3-0.9-11-3.3-13.2c-2.5-2.3-6.6-3.2-14.8-3.2c-3.8,0-7.8,0.2-12.8,0.5l-0.8,7.7h-6.7
					V37.8l0.6-0.1C149,36.9,156.7,35.4,164.7,35.4z M190.5,105.8V59.2c0-15.9-3.9-23.5-25.8-23.5c-8,0-15.4,1.4-20.2,2.3l-0.4,0.1
					v12.7h6.2l0.8-7.7c5.1-0.4,9.1-0.5,13-0.5c15.1,0,18.3,3,18.3,16.7v5.9h-11.8c-19.8,0-31.2,3.4-31.2,20.9v1.9
					c0,13.2,6.7,19.6,20.3,19.6c7.9,0,15.6-2.2,22.8-6.6l0.2-0.1v5H190.5"/>
			</g>
		</g>
	</g>
</g>
<g>
	<g>
		<g class="st3">
			<g>
				<rect x="207.6" y="105.8" width="8.1" height="0"/>
			</g>
			<g>
				<polygon points="200.6,44.1 200.6,44.1 207.6,44.5 207.6,44.5 				"/>
			</g>
			<g>
				<polygon points="215.6,37.4 215.6,105.8 207.6,105.8 207.6,44.5 200.6,44.1 200.6,37.4 				"/>
			</g>
			<g>
				<rect x="200.6" y="37.4" width="15" height="0"/>
			</g>
			<g>
				<path d="M200.4,37.2h15.5v68.9h-8.6V44.8l-6.9-0.4V37.2z M215.6,105.8V37.4h-15v6.7l6.9,0.4v61.3H215.6"/>
			</g>
			<g>
				<rect x="200.4" y="37.2" width="15.5" height="0"/>
			</g>
		</g>
	</g>
</g>
<a id="anchor" xlink:href="/" target="_top">
	<rect x="0" y="0" width="693" height="220" fill-opacity="0"/>
	</a>
</svg>
